Coordinates
version=1
nRows=21
nColumns=22
inDegrees=yes

Units are S.I. units (second, meters, Newtons, ...)
If the header above contains a line with 'inDegrees', this indicates whether rotational values are in degrees (yes) or radians (no).

endheader
time	pelvis_tilt	pelvis_list	pelvis_rotation	pelvis_tx	pelvis_ty	pelvis_tz	hip_flexion_r	hip_adduction_r	hip_rotation_r	knee_angle_r	ankle_angle_r	subtalar_angle_r	hip_flexion_l	hip_adduction_l	hip_rotation_l	knee_angle_l	ankle_angle_l	subtalar_angle_l	lumbar_extension	lumbar_bending	lumbar_rotation
      3.66000000	     -8.65737094	      4.33071448	    183.00138911	      0.32408319	      0.93350763	     -0.59302105	     15.67760945	     -5.27423328	    -12.53576701	    -20.71022242	      4.30966971	    190.87548289	     -9.86712583	      4.96606140	      4.53237219	    -19.30528148	     26.25362061	    -21.17980308	    -15.74237067	      3.10392056	    -13.09383403
      3.67000000	     -8.68874897	      4.25093075	    183.92338321	      0.31525521	      0.93179886	     -0.59399234	     15.78335832	     -5.01571327	    -13.21796415	    -18.19327869	      4.10451252	    191.57372676	    -10.21059187	      4.74607810	      5.37446547	    -19.86413278	     26.99068967	    -20.97672325	    -15.76725282	      3.08554202	    -13.44285209
      3.68000000	     -8.71079725	      4.20782229	    184.81741280	      0.30644733	      0.93000755	     -0.59501100	     15.90360808	     -4.65525226	    -13.55789283	    -15.84234642	      3.96667481	    192.25256528	    -10.50766353	      4.48188192	      6.13941984	    -20.48614325	     27.71740095	    -20.73931564	    -15.79096610	      3.10012228	    -13.78098093
      3.69000000	     -8.72155399	      4.20856694	    185.67582886	      0.29762936	      0.92815046	     -0.59605252	     16.03728030	     -4.20501173	    -13.51800285	    -13.68159702	      3.90895899	    192.95676100	    -10.77555181	      4.17453039	      6.85517389	    -21.13490380	     28.45799962	    -20.47841006	    -15.80723161	      3.15805131	    -14.06438284
      3.70000000	     -8.74284602	      4.24952083	    186.51969051	      0.28878141	      0.92628931	     -0.59705979	     16.13907130	     -3.69387642	    -13.11022572	    -11.71082735	      3.94448279	    193.56675815	    -11.02935254	      3.81805568	      7.48547596	    -21.82201423	     29.13529832	    -20.26351411	    -15.83266065	      3.26516820	    -14.35181733
      3.71000000	     -8.77924470	      4.32128640	    187.33382432	      0.27984033	      0.92445179	     -0.59802261	     16.21083129	     -3.15208374	    -12.34989573	     -9.98484877	      4.06395726	    194.22016546	    -11.30985563	      3.42983854	      8.07804125	    -22.48837304	     29.78115092	    -20.08508947	    -15.86213891	      3.40783102	    -14.57800073
      3.72000000	     -8.83603782	      4.43231615	    188.12635476	      0.27075942	      0.92267786	     -0.59892024	     16.23049478	     -2.58561404	    -11.31721628	     -8.50446784	      4.21539560	    194.73862703	    -11.61218642	      2.98825137	      8.55812205	    -23.14833859	     30.32889851	    -20.00963242	    -15.89084413	      3.60339383	    -14.79509345
      3.73000000	     -8.91214365	      4.56060517	    188.86721125	      0.26145052	      0.92099155	     -0.59979768	     16.22820693	     -2.02300492	    -10.08358786	     -7.35933652	      4.39291147	    195.21852552	    -11.97622095	      2.52459454	      8.96373354	    -23.74333766	     30.81057949	    -19.99113189	    -15.90556821	      3.81598502	    -14.96726975
      3.74000000	     -8.99428257	      4.70842208	    189.54065193	      0.25185251	      0.91940110	     -0.60067726	     16.22433301	     -1.46051070	     -8.75828482	     -6.57420121	      4.55184154	    195.58549916	    -12.39374858	      2.03530450	      9.25386159	    -24.26729804	     31.20629154	    -20.00590342	    -15.88640094	      4.04239794	    -15.07527807
      3.75000000	     -9.07929329	      4.86192201	    190.13462222	      0.24192872	      0.91792707	     -0.60158864	     16.24666363	     -0.90406953	     -7.43139255	     -6.20772157	      4.68441248	    195.84912310	    -12.87459155	      1.53824220	      9.43866726	    -24.70678034	     31.52749513	    -20.00525681	    -15.83154435	      4.26194193	    -15.12204975
      3.76000000	     -9.14343789	      5.00279667	    190.65741435	      0.23168787	      0.91654108	     -0.60252508	     16.33451275	     -0.37240606	     -6.20126407	     -6.28619978	      4.81526101	    195.94661924	    -13.37976144	      1.05732984	      9.53572737	    -25.09606172	     31.79054021	    -19.96934444	    -15.72195352	      4.45022694	    -15.14026255
      3.77000000	     -9.20644793	      5.13824413	    191.11597843	      0.22108809	      0.91531488	     -0.60345434	     16.43941141	      0.15805469	     -5.10291419	     -6.74390722	      4.89483505	    195.92637777	    -13.94357224	      0.58382980	      9.57860039	    -25.41427077	     31.89165198	    -19.85723810	    -15.57795694	      4.62346476	    -15.09969665
      3.78000000	     -9.24861596	      5.25411016	    191.54384166	      0.21017410	      0.91421952	     -0.60432575	     16.56792299	      0.66475361	     -4.17043292	     -7.52574515	      4.88054282	    195.55346881	    -14.52072248	      0.12877793	      9.59651173	    -25.70174816	     31.83139484	    -19.48223971	    -15.38325684	      4.77003783	    -15.06036137
      3.79000000	     -9.23231088	      5.33536873	    191.97079601	      0.19903643	      0.91318271	     -0.60507721	     16.75236484	      1.11534385	     -3.39218110	     -8.57466331	      4.80343460	    194.97013790	    -15.02753556	     -0.27972808	      9.64047164	    -26.03122658	     31.68536560	    -19.09736087	    -15.10637386	      4.87390669	    -15.05631661
      3.80000000	     -9.19941263	      5.39422949	    192.41849964	      0.18769786	      0.91228769	     -0.60567091	     16.91596959	      1.52643623	     -2.76162879	     -9.76965906	      4.59069224	    194.19798634	    -15.49105611	     -0.67004517	      9.71151775	    -26.41918763	     31.37399875	    -18.64246450	    -14.79210345	      4.96328302	    -15.07961252
      3.81000000	     -9.12811201	      5.43787860	    192.89326412	      0.17619245	      0.91153085	     -0.60609588	     17.05626241	      1.89991685	     -2.18317729	    -10.99716179	      4.17235018	    193.32134737	    -15.87320701	     -1.04309216	      9.83242578	    -26.87471673	     30.89509900	    -18.13334566	    -14.41131183	      5.04087968	    -15.13670907
      3.82000000	     -9.06597929	      5.47912449	    193.42410203	      0.16460368	      0.91098861	     -0.60631913	     17.12307934	      2.24623323	     -1.70262212	    -12.19400109	      3.58781558	    192.41249588	    -16.16870642	     -1.43054058	      9.97701333	    -27.47501182	     30.22713914	    -17.56702878	    -14.02465993	      5.13624929	    -15.23016914
      3.83000000	     -8.99365004	      5.54195966	    193.98829342	      0.15292444	      0.91066524	     -0.60637265	     17.14013862	      2.58890587	     -1.26846731	    -13.31083608	      2.86455119	    191.61192238	    -16.35112163	     -1.84027016	     10.15329302	    -28.21726008	     29.35301568	    -16.94772760	    -13.59889810	      5.26591230	    -15.30603724
      3.84000000	     -8.92387650	      5.63484539	    194.57678818	      0.14117810	      0.91059018	     -0.60625597	     17.11230495	      2.93273831	     -0.90422003	    -14.35611417	      2.09520887	    191.01328317	    -16.41222497	     -2.27903019	     10.32924421	    -29.12645631	     28.24920731	    -16.26600438	    -13.14654151	      5.44535433	    -15.35984089
      3.85000000	     -8.86033875	      5.75781255	    195.17895413	      0.12942026	      0.91077282	     -0.60600023	     17.04929134	      3.27469633	     -0.64049743	    -15.34156608	      1.36407117	    190.65343908	    -16.32180526	     -2.74100651	     10.47715261	    -30.25124544	     26.88413047	    -15.52697878	    -12.67961319	      5.66829378	    -15.38107962
      3.86000000	     -8.81318495	      5.92146122	    195.77732290	      0.11763844	      0.91122125	     -0.60559770	     16.94704807	      3.62295701	     -0.51836367	    -16.28199376	      0.81511796	    190.47869084	    -16.08881368	     -3.22723174	     10.59564619	    -31.58410640	     25.18365428	    -14.66588281	    -12.20230587	      5.94971889	    -15.31302566
